<?xml version="1.0" encoding="UTF-8"?>
<svg width="20px" height="20px" viewBox="0 0 20 20" version="1.1" xmlns="http://www.w3.org/2000/svg" xmlns:xlink="http://www.w3.org/1999/xlink">
    <title>D54F995C-6073-4B20-BAAB-F567B0998596</title>
    <g id="Page-1" stroke="none" stroke-width="1" fill="none" fill-rule="evenodd">
        <g id="adding-new-API-Calls" transform="translate(-1178.000000, -514.000000)" fill-rule="nonzero">
            <g id="Dropdown/Select/Default-Copy-25" transform="translate(1168.000000, 504.000000)">
                <g id="Icon/Connectro-logo" transform="translate(10.000000, 10.000000)">
                    <g id="Redis_Logo" transform="translate(0.000000, 2.000000)">
                        <path d="M19.2160301,13.1085063 C18.1487611,13.660237 12.6198425,15.9147306 11.4427664,16.5232434 C10.2656903,17.1319893 9.61178526,17.1260429 8.68195159,16.6851947 C7.75211792,16.2443466 1.86838345,13.8873653 0.8085212,13.3849546 C0.278766424,13.1338076 0.000251318501,12.9219532 0.000251318501,12.7217585 L0.000251318501,10.7168961 C0.000251318501,10.7168961 7.66006333,9.06310331 8.89674564,8.62318789 C10.1333104,8.18315587 10.5623106,8.16729886 11.6146486,8.54961603 C12.6671042,8.9319332 18.9594999,10.0578975 19.999611,10.4356674 C19.999611,10.4356674 19.9991407,12.2262269 19.9991407,12.4120804 C19.9992583,12.610293 19.759305,12.827744 19.2160301,13.1085063 L19.2160301,13.1085063 Z" id="Path" fill="#A41E11"></path>
                        <path d="M19.2160301,11.103061 C18.1487611,11.6545584 12.6198425,13.9092853 11.4427664,14.517798 C10.2656903,15.126544 9.61178526,15.1205976 8.68195159,14.6797494 C7.75200035,14.2391344 1.86838345,11.8816868 0.8085212,11.3795093 C-0.251341052,10.8770986 -0.273561126,10.5312759 0.767608048,10.1270387 C1.80865965,9.72256836 7.66006333,7.44580493 8.89686321,7.00577291 C10.1334279,6.56597408 10.5624282,6.54988388 11.6147662,6.93231764 C12.6672218,7.31463481 18.1631043,9.48413024 19.2030978,9.86190017 C20.2433264,10.2400199 20.283299,10.5513303 19.2160301,11.103061 L19.2160301,11.103061 Z" id="Path" fill="#D82C20"></path>
                        <path d="M19.2160301,9.83916402 C18.1487611,10.3908947 12.6198425,12.6453883 11.4427664,13.2541343 C10.2656903,13.862647 9.61178526,13.8567006 8.68195159,13.4158525 C7.75200035,12.9752375 1.86838345,10.618023 0.8085212,10.1156123 C0.278766424,9.86446528 0.000251318501,9.65284416 0.000251318501,9.45264941 L0.000251318501,7.44755386 C0.000251318501,7.44755386 7.66006333,5.79387763 8.89674564,5.35384561 C10.1333104,4.91393019 10.5623106,4.89795658 11.6146486,5.28027375 C12.6671042,5.66259092 18.9594999,6.788322 19.999611,7.16620854 C19.999611,7.16620854 19.9991407,8.95676807 19.9991407,9.14285474 C19.9992583,9.34095077 19.759305,9.55840167 19.2160301,9.83916402 L19.2160301,9.83916402 Z" id="Path" fill="#A41E11"></path>
                        <path d="M19.2160301,7.83371868 C18.1487611,8.38544934 12.6198425,10.639943 11.4427664,11.2486889 C10.2656903,11.8572017 9.61178526,11.8512553 8.68195159,11.4104071 C7.75200035,10.9697921 1.86838345,8.61246109 0.8085212,8.11016699 C-0.251341052,7.60787289 -0.273561126,7.26205017 0.767608048,6.85757983 C1.80865965,6.45334268 7.66006333,4.17646264 8.89686321,3.73654722 C10.1334279,3.2966318 10.5624282,3.2806582 11.6147662,3.66297536 C12.6672218,4.04529253 18.1631043,6.21467136 19.2030978,6.59255789 C20.2433264,6.97056102 20.283299,7.28198802 19.2160301,7.83371868 L19.2160301,7.83371868 Z" id="Path" fill="#D82C20"></path>
                        <path d="M19.2160301,6.44856225 C18.1487611,7.00029291 12.6198425,9.25490317 11.4427664,9.86364911 C10.2656903,10.4721619 9.61178526,10.4662155 8.68195159,10.0253673 C7.75200035,9.58475229 1.86838345,7.22742126 0.8085212,6.72512716 C0.278766424,6.47398011 0.000251318501,6.26224239 0.000251318501,6.06216424 L0.000251318501,4.05706869 C0.000251318501,4.05706869 7.66006333,2.40339246 8.89674564,1.96347704 C10.1333104,1.52344502 10.5623106,1.50758801 11.6146486,1.88990517 C12.6671042,2.27222234 18.9594999,3.39795343 19.999611,3.77583996 C19.999611,3.77583996 19.9991407,5.5663995 19.9991407,5.75236957 C19.9992583,5.950349 19.759305,6.16779991 19.2160301,6.44856225 L19.2160301,6.44856225 Z" id="Path" fill="#A41E11"></path>
                        <path d="M19.2160301,4.44311692 C18.1487611,4.99484758 12.6198425,7.24945784 11.4427664,7.85808718 C10.2656903,8.46659992 9.61178526,8.46065354 8.68195159,8.01992195 C7.75211792,7.57919036 1.86838345,5.22197592 0.8085212,4.71968182 C-0.251341052,4.21738772 -0.273561126,3.8714484 0.767608048,3.46709466 C1.80865965,3.06274091 7.66006333,0.78609407 8.89686321,0.346062053 C10.1334279,-0.0939699649 10.5624282,-0.109826975 11.6147662,0.272606787 C12.6672218,0.654923953 18.1631043,2.82430279 19.2030978,3.20218932 C20.2433264,3.57995925 20.283299,3.89150285 19.2160301,4.44311692 Z" id="Path" fill="#D82C20"></path>
                        <polygon id="Path" fill="#FFFFFF" points="12.6205479 2.5122928 10.8876172 2.69068416 10.4996477 3.61645369 9.87301809 2.58341615 7.87203578 2.4050248 9.36513069 1.87101668 8.91720221 1.05134919 10.3150682 1.59351901 11.632989 1.16561294 11.2767624 2.01326338"></polygon>
                        <polygon id="Path" fill="#FFFFFF" points="10.3961891 7.00355759 7.16193395 5.67320112 11.7964065 4.96779738"></polygon>
                        <ellipse id="Oval" fill="#FFFFFF" cx="5.91220175" cy="3.97906619" rx="2.47700918" ry="1"></ellipse>
                        <polygon id="Path" fill="#7A0C00" points="14.6685568 2.76530538 17.4113839 3.84031736 14.6709081 4.91416338"></polygon>
                        <polygon id="Path" fill="#AD2115" points="11.6341647 3.95574706 14.6685568 2.76530538 14.6709081 4.91416338 14.3734648 5.02959308"></polygon>
                    </g>
                </g>
            </g>
        </g>
    </g>
</svg>